<?xml version="1.0" encoding="UTF-8" standalone="no"?>
<!-- Created with Inkscape (http://www.inkscape.org/) -->

<svg
   width="210mm"
   height="297mm"
   viewBox="0 0 210 297"
   version="1.1"
   id="svg1"
   xml:space="preserve"
   inkscape:version="1.4.2 (ebf0e94, 2025-05-08)"
   sodipodi:docname="logo.svg"
   xmlns:inkscape="http://www.inkscape.org/namespaces/inkscape"
   xmlns:sodipodi="http://sodipodi.sourceforge.net/DTD/sodipodi-0.dtd"
   xmlns="http://www.w3.org/2000/svg"
   xmlns:svg="http://www.w3.org/2000/svg"><sodipodi:namedview
     id="namedview1"
     pagecolor="#ffffff"
     bordercolor="#000000"
     borderopacity="0.25"
     inkscape:showpageshadow="2"
     inkscape:pageopacity="0.0"
     inkscape:pagecheckerboard="0"
     inkscape:deskcolor="#d1d1d1"
     inkscape:document-units="mm"
     inkscape:zoom="1.0396254"
     inkscape:cx="396.77752"
     inkscape:cy="176.50588"
     inkscape:window-width="2560"
     inkscape:window-height="1369"
     inkscape:window-x="-8"
     inkscape:window-y="-8"
     inkscape:window-maximized="1"
     inkscape:current-layer="layer1" /><defs
     id="defs1"><rect
       x="-103.88357"
       y="-29.818432"
       width="949.3804"
       height="309.72694"
       id="rect2" /></defs><g
     inkscape:label="Layer 1"
     inkscape:groupmode="layer"
     id="layer1"><path
       style="fill:#000000;stroke-width:0.37375"
       d="m 167.14871,49.112082 c -2.77104,-0.509649 -4.60333,-2.111812 -5.32507,-4.656294 -0.35941,-1.267048 -0.47034,-2.908361 -0.29744,-4.400588 l 0.0667,-0.576057 -1.52487,-0.06358 c -2.51162,-0.104712 -4.50968,-0.625545 -6.4576,-1.683313 -5.35925,-2.910227 -8.26229,-8.991726 -7.56487,-15.847524 0.61618,-6.057494 4.10124,-10.938132 9.16619,-12.8367757 1.72838,-0.6478976 3.2724,-0.902031 5.42335,-0.8926426 2.52889,0.010985 4.26908,0.3900882 6.36536,1.3865031 3.72623,1.7711872 6.55355,5.4445052 7.66301,9.9559542 0.38615,1.570232 0.40075,1.888874 0.46126,10.077032 l 0.0589,7.96882 0.51491,-1.489942 c 0.2832,-0.819472 0.60991,-1.767611 0.72602,-2.106983 0.11613,-0.339368 0.90464,-2.606978 1.75232,-5.039127 0.8477,-2.432151 2.56862,-7.383863 3.82428,-11.003808 1.25567,-3.619945 2.41693,-6.859383 2.58059,-7.198753 1.41181,-2.9276498 5.27291,-3.5149605 7.40713,-1.1266951 0.44286,0.4955871 0.89156,1.4134051 1.40553,2.8749631 0.46902,1.333796 1.67617,4.79539 3.94488,11.312326 0.90578,2.601836 2.04282,5.864415 2.52676,7.250174 2.37214,6.792524 2.91922,8.38401 2.89254,8.41456 -0.0386,0.04424 -4.16474,0.02115 -4.20605,-0.02356 -0.0275,-0.0297 -0.43866,-1.252894 -2.19852,-6.539908 l -0.25674,-0.771297 h -7.5026 -7.50259 l -0.5369,1.594009 c -0.29531,0.876708 -0.85316,2.531135 -1.23966,3.676508 l -0.70273,2.082496 h -1.7252 -1.72521 l -0.0516,1.722559 c -0.0889,2.962806 -0.61098,4.529537 -2.01455,6.045565 -0.87393,0.943957 -1.58206,1.393016 -2.67214,1.694538 -0.85313,0.235977 -2.52636,0.338566 -3.27533,0.200813 z m 2.31223,-4.006166 c 0.90163,-0.492409 1.48941,-1.439438 1.67945,-2.70594 0.0555,-0.369423 0.0959,-2.921075 0.0963,-6.068086 l 7e-4,-5.430605 -0.40411,0.25847 c -1.41295,0.903695 -3.16502,2.677328 -4.01327,4.06264 -0.99331,1.622199 -1.52868,3.459148 -1.63635,5.614542 -0.0873,1.748099 0.21782,2.764872 1.11892,3.728541 0.80813,0.864246 2.14612,1.093202 3.15826,0.540438 z m -7.13744,-9.477961 0.64238,-0.106026 0.52042,-1.096133 c 1.38797,-2.923393 4.02089,-5.6941 7.1569,-7.531398 l 0.59429,-0.348188 v -1.720498 c 0,-3.648587 -0.4526,-5.652013 -1.79617,-7.950344 -0.50239,-0.859438 -1.91233,-2.407458 -2.75568,-3.025582 -0.80872,-0.592732 -2.36994,-1.387595 -3.22557,-1.642221 -1.55073,-0.461481 -3.48486,-0.521595 -5.23426,-0.162698 -3.14695,0.645626 -5.91999,3.085743 -7.35951,6.47592 -1.716,4.041355 -1.23024,9.277788 1.18213,12.742974 2.39402,3.438839 6.16842,5.041951 10.27507,4.364178 z m 32.45146,-7.394266 c 0.0541,-0.09484 -0.20287,-0.955623 -0.81225,-2.719811 -0.0977,-0.28281 -0.86841,-2.596693 -1.71272,-5.141967 -2.83562,-8.548319 -2.71734,-8.23585 -3.20994,-8.478594 -0.64475,-0.317714 -1.15474,0.119797 -1.55869,1.3372 -0.13967,0.420946 -0.83864,2.477631 -1.55326,4.570412 -1.61403,4.726772 -2.93319,8.597633 -3.28278,9.632792 -0.14653,0.433737 -0.24143,0.815525 -0.21101,0.848424 0.10573,0.114442 12.27486,0.06666 12.34065,-0.04845 z M 51.296404,39.95324 c -3.005986,-0.267963 -5.636966,-1.503874 -7.531471,-3.537919 -1.617169,-1.736284 -2.510104,-3.574304 -3.055046,-6.288449 -0.145553,-0.724694 -0.165561,-1.870154 -0.195182,-11.117581 -0.02275,-7.146644 -0.002,-10.3100747 0.06689,-10.3110516 0.05492,-7.768e-4 1.565284,-0.00196 3.356509,-0.00275 l 3.25676,-0.00144 0.05041,10.1582186 c 0.05414,10.885783 0.0306,10.362411 0.51995,11.597973 0.387756,0.979056 1.301504,2.085095 2.145006,2.596351 1.016988,0.616425 2.377263,0.861802 3.675902,0.663087 1.880931,-0.287817 3.505044,-1.854859 4.177531,-4.030736 0.1636,-0.529404 0.17792,-1.219259 0.223018,-10.775255 l 0.04826,-10.2096386 3.25678,0.00144 c 1.791225,7.768e-4 3.301643,0.00216 3.35647,0.00275 0.161835,0.00235 0.0714,20.5430276 -0.09377,21.3405686 -0.570893,2.755155 -1.480149,4.627637 -3.096279,6.376287 -1.491684,1.614023 -3.532684,2.760583 -5.862063,3.293127 -0.582977,0.133273 -2.856234,0.376288 -3.208896,0.343033 -0.08396,-0.0078 -0.574739,-0.05202 -1.090687,-0.09802 z m 77.531726,-0.04318 c -2.84572,-0.423334 -5.16724,-1.474337 -7.28431,-3.297766 -2.34513,-2.019832 -4.18679,-5.146873 -4.87628,-8.279635 -0.41573,-1.888865 -0.43537,-2.084175 -0.43348,-4.309955 0.002,-2.155596 0.0343,-2.503321 0.38112,-4.073015 1.00583,-4.553024 3.89794,-8.473724 7.63324,-10.3480573 1.86759,-0.9371344 3.06207,-1.2617394 5.36042,-1.456704 1.35519,-0.1149713 3.35988,-0.028248 4.49668,0.1944958 2.02229,0.3962536 4.19643,1.3944026 5.8616,2.6910645 2.19761,1.711274 4.13943,4.653346 5.0795,7.695992 0.97992,3.171616 0.99338,7.259843 0.0345,10.497048 -1.38328,4.670342 -4.53853,8.244269 -8.69929,9.853639 -2.26043,0.874317 -5.14057,1.191892 -7.55377,0.832895 z m 3.80352,-3.704834 c 2.09967,-0.401126 3.70125,-1.145939 5.15729,-2.398368 4.10534,-3.531312 5.35043,-10.21379 2.90973,-15.616829 -1.04457,-2.312376 -2.94998,-4.351685 -4.96766,-5.316726 -3.11464,-1.489729 -6.89886,-1.413915 -9.854,0.197413 -2.28878,1.247994 -4.20878,3.684137 -5.14644,6.529897 -0.5913,1.794601 -0.81,4.58179 -0.5167,6.584667 0.4521,3.087077 1.86079,5.778527 4.02423,7.688738 2.15109,1.899282 5.61645,2.861749 8.39355,2.331208 z m -66.952187,3.236789 c -0.04767,-0.03192 0.249617,-0.656655 0.660579,-1.38833 0.410962,-0.731677 1.474579,-2.626099 2.36359,-4.209825 0.889012,-1.583727 2.178785,-3.881277 2.86616,-5.105675 0.687376,-1.224394 1.273708,-2.293599 1.302936,-2.376007 0.03786,-0.10685 -0.165169,-0.269681 -0.707874,-0.567471 -2.194635,-1.204314 -3.599733,-2.751828 -4.621841,-5.090262 -0.88144,-2.016615 -1.017302,-3.161896 -0.978894,-8.251166 l 0.02864,-3.8050534 h 3.375616 3.375635 l 0.051,4.2678294 c 0.05551,4.631712 0.04649,4.551344 0.629821,5.652794 0.53121,1.00303 1.648653,1.89776 2.513243,2.012337 l 0.419201,0.05555 0.958845,-1.777845 c 1.127213,-2.090011 3.730809,-6.845492 4.830166,-8.822339 l 0.772079,-1.3883294 3.702561,-0.026933 c 2.036409,-0.014908 3.732593,0.00824 3.769315,0.051414 0.03668,0.043097 -0.241202,0.6105481 -0.617639,1.2610077 -0.376438,0.6504577 -1.427951,2.4784267 -2.336677,4.0621527 -0.908726,1.583726 -2.246696,3.912873 -2.973285,5.175884 -0.726588,1.26301 -1.299875,2.35615 -1.273943,2.429201 0.02589,0.07305 0.168308,0.165463 0.316294,0.205371 0.148103,0.0399 0.606399,0.232649 1.018558,0.428324 3.437015,1.631715 5.451434,4.741288 5.849959,9.030377 0.05748,0.617861 0.104359,2.711927 0.104359,4.653482 v 3.530096 h -3.423185 -3.423166 v -3.796011 c 0,-4.121248 -0.06768,-4.900041 -0.506709,-5.834959 -0.30521,-0.649897 -0.903116,-1.376354 -1.462809,-1.777301 -0.520126,-0.372601 -1.506651,-0.726769 -2.024365,-0.726769 -0.42687,0 -0.08984,-0.546342 -3.616641,5.861841 -1.323003,2.403868 -2.636218,4.787169 -2.918242,5.296226 l -0.51277,0.925553 -3.712055,0.05141 c -2.041628,0.02829 -3.751033,0.02531 -3.798662,-0.0067 z m 35.897927,0.0151 c -0.0218,-0.02356 -0.0396,-2.022346 -0.0396,-4.441735 0,-2.419383 -0.0355,-4.422641 -0.0791,-4.451682 -0.0435,-0.02903 -0.46065,-0.144259 -0.92711,-0.256039 -1.122149,-0.2689 -1.88185,-0.541343 -2.594668,-0.930506 -3.08141,-1.682287 -4.914202,-4.510857 -5.573918,-8.602258 -0.110244,-0.684198 -0.140845,-2.037791 -0.146534,-6.495521 l -0.0078,-5.6312073 1.906589,-0.027836 1.906569,-0.027836 0.0019,5.0669633 c 0.002,6.566952 0.08945,7.328386 1.074032,9.386221 0.490997,1.026285 1.622349,2.299719 2.585019,2.90963 0.366081,0.231939 1.050731,0.547127 1.521401,0.700412 0.76619,0.24952 1.00516,0.278703 2.28212,0.278703 1.27697,0 1.51511,-0.02907 2.27408,-0.277716 2.53767,-0.831304 4.22554,-2.861285 4.92641,-5.924915 0.0677,-0.296217 0.12574,-2.554035 0.16124,-6.2732 l 0.0553,-5.8104213 1.92554,-0.027836 1.92554,-0.027836 v 5.5692973 c 0,3.543396 -0.0379,5.816781 -0.10397,6.249619 -0.48799,3.19586 -1.48521,5.377132 -3.29946,7.217142 -0.90324,0.916067 -1.53706,1.395066 -2.43333,1.838938 -0.818,0.405107 -2.28828,0.898506 -2.93425,0.984665 l -0.54576,0.0728 -0.0247,4.466311 -0.0247,4.46631 -1.88591,0.02119 c -1.03727,0.01157 -1.90376,0.0019 -1.92554,-0.02166 z M 4.4749336,27.956257 C 4.5063197,16.520664 4.5073006,16.460034 4.7131346,15.667764 5.1441052,14.008196 5.6406727,12.968894 6.5314498,11.862027 7.9878832,10.052248 9.9574991,8.9642662 12.24998,8.7031847 12.782465,8.6425507 16.753789,8.5995909 21.925103,8.5985316 l 8.771888,-0.00179 V 19.787564 c 0,12.299698 -0.02236,11.809867 0.577427,12.594314 0.1636,0.214055 0.517929,0.514857 0.787202,0.668459 l 0.489604,0.279266 4.065012,0.0326 4.065031,0.0326 v 3.032025 3.032026 l -4.873282,-0.03453 c -4.698658,-0.03327 -4.90053,-0.04274 -5.633984,-0.263912 -2.49041,-0.750995 -4.499651,-2.605781 -5.536569,-5.110993 -0.762369,-1.8419 -0.786791,-2.197177 -0.786791,-11.442308 V 14.75878 l -5.206093,0.02984 -5.206074,0.02984 -0.545706,0.289811 c -0.586882,0.31168 -1.101006,0.899128 -1.373378,1.569228 -0.137118,0.337453 -0.170074,0.828069 -0.201695,3.00012 l -0.03766,2.596692 h 5.572173 5.572154 v 3.085181 3.085178 H 16.861679 11.29902 v 5.501905 5.501905 H 7.8712838 4.4435279 Z"
       id="path1"
       inkscape:export-filename="logo.png"
       inkscape:export-xdpi="64.303909"
       inkscape:export-ydpi="64.303909" /><text
       xml:space="preserve"
       style="font-size:5.64444px;text-align:start;writing-mode:lr-tb;direction:ltr;text-anchor:start;fill:#000000;stroke-width:0.264583"
       x="82.203087"
       y="46.064266"
       id="text1"><tspan
         sodipodi:role="line"
         id="tspan1"
         style="font-style:normal;font-variant:normal;font-weight:bold;font-stretch:normal;font-size:5.64444px;font-family:'Iosevka Term';-inkscape-font-specification:'Iosevka Term Bold';stroke-width:0.264583"
         x="82.203087"
         y="46.064266">LORA GENERATION MADE SIMPLE</tspan></text><text
       xml:space="preserve"
       transform="scale(0.26458333)"
       id="text2"
       style="font-style:normal;font-variant:normal;font-weight:bold;font-stretch:normal;font-size:21.3333px;font-family:'Iosevka Term';-inkscape-font-specification:'Iosevka Term Bold';text-align:start;writing-mode:lr-tb;direction:ltr;white-space:pre;shape-inside:url(#rect2);display:inline;fill:#000000" /></g></svg>
